<svg width="24" height="24" viewBox="0 0 24 24" fill="none" xmlns="http://www.w3.org/2000/svg">
<path d="M17.0492 20.28C16.0692 21.23 14.9992 21.08 13.9692 20.63C12.8792 20.17 11.8792 20.15 10.7292 20.63C9.28919 21.25 8.52919 21.07 7.66919 20.28C2.78919 15.25 3.50919 7.59 9.04919 7.31C10.3992 7.38 11.3392 8.05 12.1292 8.11C13.3092 7.87 14.4392 7.18 15.6992 7.27C17.2092 7.39 18.3492 7.99 19.0992 9.07C15.9792 10.94 16.7192 15.05 19.5792 16.2C19.0092 17.7 18.2692 19.19 17.0392 20.29L17.0492 20.28ZM12.0292 7.25C11.8792 5.02 13.6892 3.18 15.7692 3C16.0592 5.58 13.4292 7.5 12.0292 7.25Z" fill="black"/>
</svg>
