<svg width="100" height="107" viewBox="0 0 100 107" fill="none" xmlns="http://www.w3.org/2000/svg">
<path d="M48.3956 0.0824857C95.2592 -2.35886 118.652 49.9794 79.6371 79.153C77.74 80.5703 69.2045 84.9296 68.5582 86.2932C65.4364 92.8767 77.4273 103.574 66.6685 106.94C63.8956 105.594 61.9101 103.814 59.5292 101.899C54.8354 98.0607 48.6851 92.6698 43.5402 89.5875C42.3045 88.8469 36.8725 87.8842 35.1207 87.4832C27.579 85.785 20.5661 82.2737 14.6911 77.2505C6.59633 70.2968 0.884014 60.3399 0.117022 49.5964C-0.738643 38.0179 3.12488 26.5875 10.8293 17.8997C20.4983 6.77577 33.8697 1.10652 48.3956 0.0824857Z" fill="#70ADE2"/>
</svg>
