<svg width="119" height="76" viewBox="0 0 119 76" fill="none" xmlns="http://www.w3.org/2000/svg">
<path d="M18.8351 65.185C8.60007 59.9353 -1.58792 47.9155 0.206952 35.8957C1.29014 28.6419 8.62128 14.6695 14.9293 10.6727C35.1874 -2.04197 63.1578 -0.726805 86.0817 1.28986C102.641 2.74675 121 16.5164 118.476 34.6347C118.35 35.0706 118.117 35.9831 117.963 36.3638C115.408 46.6285 107.045 50.789 101.491 58.5109C102.277 61.4801 103.211 64.3009 104.158 67.2182C99.1282 65.9291 97.3742 64.2416 93.2944 61.2326C87.7665 62.6282 81.7817 64.2164 76.1346 64.9922C60.4343 67.149 44.3955 67.5234 28.6484 66.3914C26.4545 67.7106 19.5088 73.6429 17.3345 75.4249C18.1489 71.7003 18.5076 68.9165 18.8351 65.185Z" fill="#7ACDBC"/>
</svg>
