<svg width="114" height="82" viewBox="0 0 114 82" fill="none" xmlns="http://www.w3.org/2000/svg">
<path d="M57.2483 0C58.2438 0 59.2394 0.0127773 60.2347 0.0408681C76.7295 0.554164 96.8021 8.30213 108.735 20.0671C114.542 25.7925 113.832 36.0865 113.844 43.6991C113.77 49.473 111.875 57.4074 107.141 61.2048C91.2457 73.9453 65.9324 74.9208 46.7329 74.2058C43.9805 74.0679 39.1971 73.5214 36.654 74.3641C34.0962 75.2119 28.1811 82.5436 25.5345 81.9486C25.0718 80.2299 29.1657 72.4641 26.553 70.0406C25.5707 69.129 23.6514 68.0411 22.4226 67.4946C10.1913 62.045 0.254101 51.0768 0.00629659 37.1642C-0.232822 24.5922 6.35673 17.2835 16.6774 11.2338C29.8291 3.52412 42.1159 0.367734 57.2483 0Z" fill="#81CF91"/>
</svg>
