<svg width="83" height="100" viewBox="0 0 83 100" fill="none" xmlns="http://www.w3.org/2000/svg">
<path d="M35.8303 0.108505C47.3997 -0.697906 55.6013 3.12084 66.1046 7.24237C71.8388 9.49252 79.4459 14.2714 81.4582 20.3319C85.4588 32.3806 76.7596 49.8709 70.3425 59.8833C68.3609 62.975 65.4071 66.135 63.8501 69.2929C62.4751 72.0821 66.4403 77.3438 67.8131 80.8727C57.2679 75.8478 56.6167 77.4712 52.1435 87.6429C51.3773 89.3848 49.3632 91.867 48.0448 93.2845C34.9686 105.268 19.4619 96.8633 9.82974 85.4028C-2.97948 70.162 -1.7235 54.7799 4.83023 37.1141C10.4069 22.082 17.7455 2.72866 35.8303 0.108505Z" fill="#FAAE36"/>
</svg>
