<svg width="91" height="87" viewBox="0 0 91 87" fill="none" xmlns="http://www.w3.org/2000/svg">
<path d="M3.45223 56.2187C2.14807 51.5459 -0.528984 36.0324 0.0920585 31.747C1.67289 20.8388 16.651 5.34183 27.4954 3.23277C42.0885 0.394677 62.9755 -2.71436 76.7463 4.10157C82.1346 6.76859 88.2199 16.0435 89.9992 21.6869C92.1012 31.4636 87.5531 49.7489 82.583 58.335C80.6904 61.8525 78.7727 64.8061 76.3723 67.9752C72.7587 72.7463 67.9004 72.7892 62.4618 73.5863L50.0075 75.3795C51.3494 80.635 52.1853 81.9992 54.8394 86.7999C46.1369 84.2283 44.9594 81.2637 39.4398 73.9803C35.4371 72.9803 26.2484 71.8081 23.4079 71.0297C19.8497 70.0547 6.06823 58.8787 3.45223 56.2187Z" fill="#5B6FD9"/>
</svg>
