<svg width="94" height="86" viewBox="0 0 94 86" fill="none" xmlns="http://www.w3.org/2000/svg">
<path d="M53.585 0.0672297C58.862 -0.225936 64.1481 0.441336 69.1862 2.03689C87.1149 7.8688 97.3183 29.9196 91.6817 47.4467C88.0096 58.8644 76.4047 70.1697 65.942 75.4226C70.4574 80.1828 72.5734 81.8759 77.8156 85.5379C75.6005 84.971 72.4355 84.7564 70.0323 84.284C65.2103 83.3391 61.7091 81.6537 57.299 79.6363L54.3892 80.4866C50.2389 81.8529 46.4569 83.0071 42.079 83.3289C32.5991 84.0261 21.8623 82.2461 14.4855 75.7929C6.96727 68.8902 0.971613 58.3026 0.120649 48.0162C-1.79505 24.8566 19.4539 9.7246 38.8803 2.83187C43.9712 1.02563 48.2503 0.42526 53.585 0.0672297Z" fill="#BB88F3"/>
</svg>
